<?xml version="1.0" encoding="UTF-8"?>
<svg xmlns="http://www.w3.org/2000/svg" version="1.2" baseProfile="tiny-ps" width="512" height="512" viewBox="0 0 512 512">
<title>Core HR Management</title>
<desc>Core HR Management brand symbol</desc>
<rect width="512" height="512" fill="#FFFFFF"/>
<path fill="#202020" d="M126 179 L106 198 L90 218 L78 236 L66 262 L60 289 L60 311 L66 337 L78 362 L93 383 L110 400 L128 414 L151 427 L178 438 L208 446 L226 448 L195 428 L160 394 L137 361 L117 320 L108 282 L105 261 L105 242 L113 204 Z"/>
<path fill="#202020" d="M122 319 L134 342 L154 370 L185 399 L222 422 L256 434 L296 440 L330 439 L364 428 L364 347 L321 371 L297 380 L261 388 L217 388 L186 379 L163 366 L140 346 Z"/>
<path fill="#202020" d="M161 203 L173 212 L193 235 L201 248 L214 277 L225 319 L229 352 L229 382 L260 380 L266 327 L278 285 L291 256 L303 236 L333 203 L316 208 L284 227 L268 241 L248 267 L232 245 L205 221 L184 209 Z"/>
<path fill="#202020" d="M456 252 L439 278 L419 301 L419 404 L431 398 L456 379 Z"/>
<path fill="#202020" d="M379 266 L364 269 L347 276 L324 289 L315 297 L307 277 L298 265 L295 265 L284 293 L276 324 L272 348 L270 378 L297 354 L355 288 Z"/>
<path fill="#202020" d="M408 312 L375 340 L375 426 L408 410 Z"/>
<path fill="#202020" d="M177 133 L146 141 L118 156 L101 169 L74 200 L57 233 L50 255 L48 275 L46 278 L44 276 L45 280 L47 280 L47 282 L45 282 L55 314 L54 295 L57 278 L56 279 L55 276 L57 276 L61 261 L59 266 L57 261 L61 256 L63 258 L67 248 L64 251 L63 246 L65 246 L66 243 L68 245 L73 233 L79 225 L78 223 L87 213 L87 205 L91 205 L90 207 L89 206 L89 210 L101 193 L126 168 L151 148 Z"/>
<path fill="#202020" d="M242 181 L235 184 L226 193 L223 200 L223 214 L227 223 L234 230 L244 234 L253 234 L263 230 L270 223 L275 210 L274 199 L269 190 L262 184 L255 181 Z"/>
<path fill="#202020" d="M312 245 L308 254 L310 266 L316 273 L323 276 L337 274 L346 262 L346 253 L342 245 L333 239 L322 239 Z"/>
<path fill="#E30613" d="M410 131 L391 112 L359 89 L343 83 L342 81 L336 81 L332 77 L323 75 L320 72 L318 73 L294 65 L245 61 L209 65 L179 73 L146 88 L110 113 L78 148 L57 184 L46 216 L43 237 L44 275 L46 277 L49 255 L61 221 L81 189 L106 164 L126 150 L146 140 L174 132 L178 133 L217 120 L236 118 L272 120 L299 128 L322 140 L338 152 L362 177 L410 133 Z"/>
<path fill="#E30613" d="M468 165 L401 220 L425 219 L426 221 L412 251 L381 294 L335 339 L291 371 L317 362 L341 350 L386 318 L407 298 L424 278 L455 231 L469 244 Z"/>
<path fill="#E30613" d="M121 267 L146 293 L199 362 L217 379 L217 352 L212 313 L204 281 L197 263 L185 277 L178 294 L164 284 L143 273 Z"/>
<path fill="#E30613" d="M116 311 L122 330 L134 354 L161 394 L189 422 L216 442 L227 448 L273 449 L299 446 L320 440 L296 441 L275 439 L260 435 L257 436 L255 434 L252 435 L231 428 L198 411 L172 391 L149 367 L129 338 Z"/>
<path fill="#E30613" d="M168 238 L157 241 L149 253 L151 266 L154 270 L164 275 L174 274 L180 270 L185 261 L185 252 L181 244 L176 240 Z"/>
</svg>